<svg width="479" height="479" viewBox="0 0 479 479" fill="none" xmlns="http://www.w3.org/2000/svg">
<path d="M478.989 239.625C478.989 304.082 453.474 362.591 412.003 405.58C368.515 450.661 307.494 478.701 239.91 478.701C172.329 478.701 111.28 450.661 67.8162 405.568C26.3213 362.579 0.818359 304.07 0.818359 239.625C0.818359 107.583 107.868 0.54834 239.907 0.54834C371.954 0.54834 478.989 107.586 478.989 239.625Z" fill="#DEDFE0"/>
<path d="M237.769 250.674H178.158C168.656 250.674 160.951 242.97 160.951 233.468V205.777H237.769V250.674Z" fill="#555A5E"/>
<path d="M240.576 250.674H300.188C309.69 250.674 317.394 242.97 317.394 233.468V205.777H240.576V250.674Z" fill="#555A5E"/>
<path d="M310.801 90.2416C300.129 79.8348 286.263 73.3118 271.566 70.8078C248.634 66.9 225.205 66.9 202.272 70.8078C187.579 73.3118 173.709 79.8318 163.038 90.2416C143.655 109.146 136.841 136.663 144.13 161.727L157.158 206.514L236.919 178.335L316.68 206.514L329.708 161.727C337.001 136.663 330.186 109.146 310.801 90.2416Z" fill="#555A5E"/>
<path d="M411.998 405.565C368.501 450.655 307.479 478.701 239.904 478.701C172.329 478.701 111.277 450.655 67.8105 405.565L71.9288 389.332C78.1512 364.954 97.3596 346.016 121.858 340.154L162.8 330.385C166.257 329.543 169.564 328.371 172.69 326.868C175.305 325.605 177.8 324.132 180.145 322.449C182.67 320.645 185.045 318.601 187.179 316.347C192.92 310.305 197.159 302.85 199.323 294.463L202.509 282.078L203.351 278.742L203.411 278.471L207.499 262.69L208.702 257.97H271.076L275.736 276.006L276.156 277.629L276.397 278.531L276.427 278.742L277.299 282.108L280.485 294.463C283.461 305.946 290.345 315.776 299.693 322.449C304.804 326.146 310.665 328.882 317.008 330.385L357.95 340.154C382.449 346.016 401.657 364.954 407.879 389.332L411.998 405.565Z" fill="#F4F4F4"/>
<path d="M284.278 355.704H195.402V465.291H284.278V355.704Z" fill="white"/>
<path d="M411.998 405.565C375.024 443.891 325.365 469.923 269.784 476.837C260.014 478.069 250.034 478.701 239.904 478.701C229.774 478.701 219.824 478.069 210.024 476.837C154.443 469.923 104.754 443.891 67.8105 405.565L71.9288 389.332C78.1512 364.954 97.3596 346.016 121.858 340.154L162.8 330.385C166.257 329.543 169.564 328.371 172.69 326.868C175.305 325.605 177.8 324.132 180.145 322.449V322.479L190.155 335.555L239.904 460.815L289.683 335.555L299.693 322.479V322.449C304.804 326.146 310.665 328.882 317.008 330.385L357.95 340.154C382.449 346.016 401.657 364.954 407.879 389.332L411.998 405.565Z" fill="#6E7174"/>
<path d="M298.7 429.462L270.744 425.705L286.646 448.31L269.782 476.837C260.013 478.07 250.033 478.701 239.903 478.701C229.772 478.701 219.823 478.07 210.023 476.837L193.159 448.31L209.061 425.705L181.105 429.462L162.799 330.385L190.153 335.555L239.903 460.815L289.682 335.555L317.007 330.385L298.7 429.462Z" fill="#555A5E"/>
<path d="M276.388 278.546C271.098 301.783 256.774 318.448 239.923 318.448C223.059 318.448 208.708 301.744 203.43 278.483L207.5 262.702L208.72 257.985H271.089L275.73 276.018L276.154 277.636L276.388 278.546Z" fill="#D2D4DA"/>
<path d="M161.457 190.122C130.402 155.276 151.122 240.46 168.301 230.504C198.499 213.003 161.457 190.122 161.457 190.122Z" fill="#F4F4F4"/>
<path d="M318.381 190.122C349.436 155.276 328.716 240.46 311.537 230.504C281.338 213.003 318.381 190.122 318.381 190.122Z" fill="#F4F4F4"/>
<path d="M312.174 165.01C312.174 167.655 312.024 170.24 311.723 172.825C311.363 176.492 309.018 198.647 304.629 220.861C304.599 220.951 304.599 221.071 304.569 221.162C300.751 240.49 295.371 259.729 288.337 266.733C280.401 274.668 274.028 281.883 266.754 287.083C259.479 292.314 251.333 295.56 239.91 295.56C228.487 295.56 220.341 292.314 213.066 287.083C205.822 281.883 199.419 274.668 191.483 266.733C184.449 259.699 179.068 240.43 175.221 221.132V221.102C175.191 221.071 175.191 221.041 175.191 221.011C174.71 218.516 174.259 216.021 173.808 213.556C173.628 212.534 173.447 211.512 173.267 210.49C169.75 190.11 168.036 172.284 168.036 172.284C167.796 169.909 167.676 167.475 167.676 165.01C167.676 164.378 167.676 163.747 167.706 163.116C167.856 157.434 168.638 151.903 170.05 146.613C170.111 146.372 170.171 146.132 170.231 145.891C178.257 116.553 204.319 94.6391 235.762 92.8956C237.144 92.8055 238.497 92.7754 239.91 92.7754C259.87 92.7754 277.936 100.862 291.012 113.938C304.088 126.984 312.174 145.05 312.174 165.01Z" fill="#F4F4F4"/>
<path d="M251.266 229.975C251.266 234.962 246.185 239.002 239.903 239.002C233.65 239.002 228.57 234.962 228.57 229.975C228.57 229.377 228.63 228.782 228.811 228.223C229.803 232.365 234.402 235.497 239.903 235.497C245.434 235.497 250.033 232.365 251.025 228.223C251.205 228.782 251.266 229.38 251.266 229.975Z" fill="#DEDFE0"/>
<path d="M180.153 322.47L239.907 355.704L203.429 388.22L162.809 330.397L180.153 322.47Z" fill="white"/>
<path d="M299.68 322.47L239.924 355.704L276.402 388.22L317.022 330.397L299.68 322.47Z" fill="white"/>
<path d="M209.074 383.188L239.925 355.704L270.76 383.188H209.074Z" fill="#DEDFE0"/>
<path d="M169.085 181.699L197.952 175.897C216.944 172.08 232.539 158.568 239.017 140.309L239.928 137.745V87.8096L189.247 99.9298L155.793 134.754L157.957 163.801L169.085 181.699Z" fill="#555A5E"/>
<path d="M310.768 181.699L281.902 175.897C262.91 172.08 247.315 158.568 240.837 140.309L239.926 137.745V87.8096L290.607 99.9298L324.061 134.754L321.896 163.801L310.768 181.699Z" fill="#555A5E"/>
</svg>
