<svg width="479" height="479" viewBox="0 0 479 479" fill="none" xmlns="http://www.w3.org/2000/svg">
<path d="M478.989 239.355C478.989 303.833 453.468 362.33 411.985 405.316C382.736 435.647 345.552 458.252 303.769 469.795C283.448 475.446 262.016 478.452 239.891 478.452C220.653 478.452 201.926 476.167 183.98 471.869C138.95 461.077 98.88 437.57 67.828 405.316C26.3151 362.33 0.824219 303.803 0.824219 239.355C0.824219 107.331 107.868 0.287598 239.891 0.287598C371.945 0.287598 478.989 107.331 478.989 239.355Z" fill="#DEDFE0"/>
<path d="M241.406 70.1919C290.022 70.1919 331.09 106.264 337.358 154.474L342.744 195.888C348.227 238.05 315.399 275.423 272.882 275.423H237.18L241.406 70.1919Z" fill="#555A5E"/>
<path d="M235.983 70.1919C187.367 70.1919 146.299 106.264 140.031 154.474L134.644 195.888C129.161 238.05 161.99 275.423 204.507 275.423H240.209L235.983 70.1919Z" fill="#555A5E"/>
<path d="M411.972 405.313C368.475 450.403 307.454 478.449 239.879 478.449C172.304 478.449 111.252 450.403 67.7852 405.313L71.9034 389.08C78.1258 364.702 97.3342 345.764 121.833 339.902L162.775 330.133C166.232 329.291 169.538 328.119 172.664 326.616C172.815 326.556 172.965 326.465 173.115 326.375C178.406 323.79 183.155 320.303 187.153 316.095C192.895 310.053 197.133 302.598 199.298 294.211L202.484 281.826L203.326 278.49L203.386 278.219L207.474 262.438L208.676 257.718H271.051L275.71 275.754L276.131 277.377L276.371 278.279L276.402 278.49L277.273 281.856L280.46 294.211C284.217 308.76 294.287 320.664 307.604 326.856C310.58 328.239 313.736 329.351 316.983 330.133L357.924 339.902C382.423 345.764 401.632 364.702 407.854 389.08L411.972 405.313Z" fill="#F4F4F4"/>
<path d="M411.972 405.313C368.475 450.403 307.454 478.449 239.879 478.449C172.304 478.449 111.252 450.403 67.7852 405.313L71.9034 389.08C78.1258 364.702 97.3342 345.764 121.833 339.902L162.775 330.133C166.232 329.291 169.538 328.119 172.664 326.616L208.95 386.832C223.138 410.378 257.28 410.378 271.466 386.832L307.604 326.856C310.58 328.239 313.736 329.351 316.983 330.133L357.924 339.902C382.423 345.764 401.632 364.702 407.854 389.08L411.972 405.313Z" fill="#6E7174"/>
<path d="M276.38 278.286C271.09 301.522 256.766 318.187 239.915 318.187C223.051 318.187 208.7 301.486 203.422 278.223L207.492 262.441L208.712 257.725H271.081L275.722 275.758L276.146 277.375L276.38 278.286Z" fill="#D2D4DA"/>
<path d="M161.451 189.861C130.396 155.015 151.116 240.199 168.295 230.243C198.494 212.742 161.451 189.861 161.451 189.861Z" fill="#F4F4F4"/>
<path d="M318.375 189.861C349.43 155.015 328.71 240.199 311.531 230.243C281.332 212.742 318.375 189.861 318.375 189.861Z" fill="#F4F4F4"/>
<path d="M321.864 163.543C321.864 171.6 320.963 179.415 319.279 186.87V186.9C310.201 227.21 278.127 256.97 239.921 256.97C194.651 256.97 157.947 215.156 157.947 163.543C157.947 134.926 169.22 109.345 186.985 92.211C201.264 78.4135 219.751 70.0869 239.921 70.0869C285.191 70.0869 321.864 111.93 321.864 163.543Z" fill="#555A5E"/>
<path d="M312.168 164.758C312.168 167.403 312.018 169.988 311.717 172.573C311.537 174.347 310.906 180.569 309.764 189.076C306.577 213.094 299.513 255.298 288.331 266.481C280.425 274.416 274.022 281.631 266.748 286.831C259.473 292.062 251.357 295.308 239.904 295.308C228.481 295.308 220.335 292.062 213.061 286.861C205.816 281.631 199.413 274.416 191.477 266.481C184.323 259.326 178.852 239.397 175.005 219.677L174.974 219.647C174.584 217.513 174.163 215.409 173.802 213.304C173.622 212.282 173.441 211.26 173.261 210.238C171.938 202.543 170.856 195.208 170.045 189.076C168.692 178.946 168.031 172.032 168.031 172.032C167.82 169.657 167.67 167.223 167.67 164.758C167.67 164.126 167.7 163.495 167.7 162.864C167.85 157.182 168.662 151.651 170.045 146.361C170.105 146.12 170.165 145.88 170.225 145.639C174.343 130.67 183.121 117.654 194.964 108.245C206.297 99.1968 220.395 93.4854 235.786 92.6437C237.139 92.5535 238.491 92.5234 239.874 92.5234H239.904C259.864 92.5234 277.93 100.61 291.006 113.656C304.082 126.732 312.168 144.798 312.168 164.758Z" fill="#F4F4F4"/>
<path d="M251.56 235.732C251.56 240.719 246.48 244.759 240.198 244.759C233.945 244.759 228.865 240.719 228.865 235.732C228.865 235.134 228.925 234.539 229.106 233.98C230.098 238.122 234.697 241.254 240.198 241.254C245.729 241.254 250.328 238.122 251.32 233.98C251.5 234.536 251.56 235.134 251.56 235.732Z" fill="#DEDFE0"/>
<path d="M193.315 107.054C181.039 116.809 171.939 130.3 167.668 145.82C167.605 146.069 167.542 146.319 167.481 146.568C166.048 152.051 165.206 157.787 165.05 163.675C165.05 164.331 165.02 164.983 165.02 165.638C165.02 168.193 165.176 170.718 165.392 173.18C165.392 173.18 166.078 180.347 167.481 190.85C172.748 190.321 229.336 183.59 239.869 137.156V90.7559C238.435 90.7559 237.031 90.7859 235.631 90.8791C219.678 91.7538 205.063 97.6727 193.315 107.054Z" fill="#555A5E"/>
<path d="M292.877 112.661C279.32 99.1366 260.593 90.7529 239.902 90.7529V137.154C250.465 183.647 307.15 190.315 312.323 190.847C313.507 182.027 314.163 175.579 314.349 173.74C314.662 171.061 314.818 168.38 314.818 165.638C314.815 144.945 306.431 126.218 292.877 112.661Z" fill="#555A5E"/>
<path d="M160.953 235.639H186.267L180.751 164.968H160.953V235.639Z" fill="#555A5E"/>
<path d="M318.933 235.639H293.619L299.135 164.968H318.933V235.639Z" fill="#555A5E"/>
<path d="M172.666 326.616V380.228C172.666 390.643 181.11 399.087 191.526 399.087H221.009L172.666 326.616Z" fill="#DEDFE0"/>
<path d="M307.612 326.823V380.435C307.612 390.851 299.168 399.295 288.752 399.295H259.27L307.612 326.823Z" fill="#DEDFE0"/>
<path d="M206.203 453.159C201.454 453.159 196.719 451.248 193.262 447.481C186.721 440.351 187.202 429.229 194.333 422.688C201.126 416.459 228.884 412.215 230.065 412.037L232.271 411.704L231.748 413.877C231.469 415.034 224.844 442.326 218.053 448.551C214.698 451.635 210.442 453.159 206.203 453.159ZM228.282 415.365C219.27 416.868 201.021 420.637 196.368 424.9C190.458 430.323 190.058 439.539 195.478 445.449C200.904 451.359 210.117 451.756 216.027 446.336C220.677 442.07 226.004 424.215 228.282 415.365Z" fill="white"/>
<path d="M274.616 453.159C270.378 453.159 266.127 451.635 262.763 448.551C255.973 442.326 249.348 415.034 249.068 413.877L248.545 411.704L250.751 412.037C251.933 412.215 279.69 416.459 286.484 422.688C293.614 429.229 294.095 440.351 287.557 447.481C284.1 451.248 279.365 453.159 274.616 453.159ZM252.537 415.365C254.815 424.212 260.142 442.07 264.792 446.336C270.699 451.75 279.919 451.359 285.341 445.449C290.761 439.539 290.361 430.323 284.452 424.9C279.801 420.637 261.552 416.868 252.537 415.365Z" fill="white"/>
<path d="M224.36 471.078L222.234 468.953L225.415 465.773C231.174 460.016 234.349 452.357 234.349 444.208V411.55H237.355V444.208C237.355 453.159 233.871 461.57 227.54 467.898L224.36 471.078Z" fill="white"/>
<path d="M256.46 471.078L253.279 467.898C246.952 461.573 243.465 453.159 243.465 444.208V411.55H246.471V444.208C246.471 452.357 249.645 460.016 255.405 465.773L258.585 468.953L256.46 471.078Z" fill="white"/>
</svg>
